<svg xmlns="http://www.w3.org/2000/svg" width="1621px" height="590px" viewBox="0 0 1621 590" xmlns:xlink="http://www.w3.org/1999/xlink" style="overflow: hidden; display: block; width: 1621px; height: 590px;"><defs/><g style="pointer-events:visiblePainted" transform="translate(19.39283588216078 0)" image-rendering="auto" shape-rendering="auto"><g><path fill="none" stroke="rgb(169,169,169)" d="M 172.5,250 L 172.5,260 L 35,260 L 35,340" stroke-opacity="1" stroke-width="1" stroke-linecap="butt" stroke-linejoin="miter" stroke-miterlimit="10"/></g><g><path fill="none" stroke="rgb(169,169,169)" d="M 468.3333333333333,490 L 468.3333333333333,500 L 201.66666666666666,500 L 201.66666666666666,530" stroke-opacity="1" stroke-width="1" stroke-linecap="butt" stroke-linejoin="miter" stroke-miterlimit="10"/></g><g><path fill="none" stroke="rgb(169,169,169)" d="M 485,490 L 485,510 L 351.6666666666667,510 L 351.6666666666667,530" stroke-opacity="1" stroke-width="1" stroke-linecap="butt" stroke-linejoin="miter" stroke-miterlimit="10"/></g><g><path fill="none" stroke="rgb(169,169,169)" d="M 501.6666666666667,490 L 501.6666666666667,530" stroke-opacity="1" stroke-width="1" stroke-linecap="butt" stroke-linejoin="miter" stroke-miterlimit="10"/></g><g><path fill="none" stroke="rgb(169,169,169)" d="M 485,400 L 485,430" stroke-opacity="1" stroke-width="1" stroke-linecap="butt" stroke-linejoin="miter" stroke-miterlimit="10"/></g><g><path fill="none" stroke="rgb(169,169,169)" d="M 197.5,250 L 197.5,310 L 466.25,310 L 466.25,340" stroke-opacity="1" stroke-width="1" stroke-linecap="butt" stroke-linejoin="miter" stroke-miterlimit="10"/></g><g><path fill="none" stroke="rgb(169,169,169)" d="M 651.6666666666667,490 L 651.6666666666666,530" stroke-opacity="1" stroke-width="1" stroke-linecap="butt" stroke-linejoin="miter" stroke-miterlimit="10"/></g><g><path fill="none" stroke="rgb(169,169,169)" d="M 668.3333333333334,490 L 668.3333333333334,510 L 801.6666666666666,510 L 801.6666666666666,530" stroke-opacity="1" stroke-width="1" stroke-linecap="butt" stroke-linejoin="miter" stroke-miterlimit="10"/></g><g><path fill="none" stroke="rgb(169,169,169)" d="M 685,490 L 685,500 L 951.6666666666666,500 L 951.6666666666666,530" stroke-opacity="1" stroke-width="1" stroke-linecap="butt" stroke-linejoin="miter" stroke-miterlimit="10"/></g><g><path fill="none" stroke="rgb(169,169,169)" d="M 635,400 L 635,410 L 668.3333333333334,410 L 668.3333333333334,430" stroke-opacity="1" stroke-width="1" stroke-linecap="butt" stroke-linejoin="miter" stroke-miterlimit="10"/></g><g><path fill="none" stroke="rgb(169,169,169)" d="M 210,250 L 210,300 L 616.25,300 L 616.25,340" stroke-opacity="1" stroke-width="1" stroke-linecap="butt" stroke-linejoin="miter" stroke-miterlimit="10"/></g><g><path fill="none" stroke="rgb(169,169,169)" d="M 185,250 L 185,340" stroke-opacity="1" stroke-width="1" stroke-linecap="butt" stroke-linejoin="miter" stroke-miterlimit="10"/></g><g><path fill="none" stroke="rgb(169,169,169)" d="M 608.75,150 L 608.75,160 L 191.25,160 L 191.25,190" stroke-opacity="1" stroke-width="1" stroke-linecap="butt" stroke-linejoin="miter" stroke-miterlimit="10"/></g><g><path fill="none" stroke="rgb(169,169,169)" d="M 462.0833333333333,250 L 462.0833333333333,260 L 335,260 L 335,340" stroke-opacity="1" stroke-width="1" stroke-linecap="butt" stroke-linejoin="miter" stroke-miterlimit="10"/></g><g><path fill="none" stroke="rgb(169,169,169)" d="M 478.75,250 L 478.75,340" stroke-opacity="1" stroke-width="1" stroke-linecap="butt" stroke-linejoin="miter" stroke-miterlimit="10"/></g><g><path fill="none" stroke="rgb(169,169,169)" d="M 495.4166666666667,250 L 495.4166666666667,280 L 628.75,280 L 628.75,340" stroke-opacity="1" stroke-width="1" stroke-linecap="butt" stroke-linejoin="miter" stroke-miterlimit="10"/></g><g><path fill="none" stroke="rgb(169,169,169)" d="M 618.75,150 L 618.75,170 L 478.75,170 L 478.75,190" stroke-opacity="1" stroke-width="1" stroke-linecap="butt" stroke-linejoin="miter" stroke-miterlimit="10"/></g><g><path fill="none" stroke="rgb(169,169,169)" d="M 645.4166666666666,250 L 645.4166666666666,260 L 785,260 L 785,340" stroke-opacity="1" stroke-width="1" stroke-linecap="butt" stroke-linejoin="miter" stroke-miterlimit="10"/></g><g><path fill="none" stroke="rgb(169,169,169)" d="M 612.0833333333334,250 L 612.0833333333334,290 L 491.25,290 L 491.25,340" stroke-opacity="1" stroke-width="1" stroke-linecap="butt" stroke-linejoin="miter" stroke-miterlimit="10"/></g><g><path fill="none" stroke="rgb(169,169,169)" d="M 628.75,250 L 628.75,270 L 641.25,270 L 641.25,340" stroke-opacity="1" stroke-width="1" stroke-linecap="butt" stroke-linejoin="miter" stroke-miterlimit="10"/></g><g><path fill="none" stroke="rgb(169,169,169)" d="M 628.75,150 L 628.75,190" stroke-opacity="1" stroke-width="1" stroke-linecap="butt" stroke-linejoin="miter" stroke-miterlimit="10"/></g><g><path fill="none" stroke="rgb(169,169,169)" d="M 795.4166666666666,250 L 795.4166666666666,260 L 935,260 L 935,340" stroke-opacity="1" stroke-width="1" stroke-linecap="butt" stroke-linejoin="miter" stroke-miterlimit="10"/></g><g><path fill="none" stroke="rgb(169,169,169)" d="M 762.0833333333334,250 L 762.0833333333334,310 L 503.75,310 L 503.75,340" stroke-opacity="1" stroke-width="1" stroke-linecap="butt" stroke-linejoin="miter" stroke-miterlimit="10"/></g><g><path fill="none" stroke="rgb(169,169,169)" d="M 778.75,250 L 778.75,320 L 653.75,320 L 653.75,340" stroke-opacity="1" stroke-width="1" stroke-linecap="butt" stroke-linejoin="miter" stroke-miterlimit="10"/></g><g><path fill="none" stroke="rgb(169,169,169)" d="M 638.75,150 L 638.75,170 L 778.75,170 L 778.75,190" stroke-opacity="1" stroke-width="1" stroke-linecap="butt" stroke-linejoin="miter" stroke-miterlimit="10"/></g><g><path fill="none" stroke="rgb(169,169,169)" d="M 648.75,150 L 648.75,160 L 928.75,160 L 928.75,190" stroke-opacity="1" stroke-width="1" stroke-linecap="butt" stroke-linejoin="miter" stroke-miterlimit="10"/></g><g><path fill="none" stroke="rgb(169,169,169)" d="M 628.75,60 L 628.75,90" stroke-opacity="1" stroke-width="1" stroke-linecap="butt" stroke-linejoin="miter" stroke-miterlimit="10"/></g><g><path fill="none" stroke="rgb(169,169,169)" d="M 1085,250 L 1085,340" stroke-opacity="1" stroke-width="1" stroke-linecap="butt" stroke-linejoin="miter" stroke-miterlimit="10"/></g><g><path fill="none" stroke="rgb(169,169,169)" d="M 1368.3333333333333,490 L 1368.3333333333333,500 L 1235,500 L 1235,530" stroke-opacity="1" stroke-width="1" stroke-linecap="butt" stroke-linejoin="miter" stroke-miterlimit="10"/></g><g><path fill="none" stroke="rgb(169,169,169)" d="M 1385,490 L 1385,530" stroke-opacity="1" stroke-width="1" stroke-linecap="butt" stroke-linejoin="miter" stroke-miterlimit="10"/></g><g><path fill="none" stroke="rgb(169,169,169)" d="M 1401.6666666666667,490 L 1401.6666666666667,500 L 1535,500 L 1535,530" stroke-opacity="1" stroke-width="1" stroke-linecap="butt" stroke-linejoin="miter" stroke-miterlimit="10"/></g><g><path fill="none" stroke="rgb(169,169,169)" d="M 1385,400 L 1385,430" stroke-opacity="1" stroke-width="1" stroke-linecap="butt" stroke-linejoin="miter" stroke-miterlimit="10"/></g><g><path fill="none" stroke="rgb(169,169,169)" d="M 1110,250 L 1110,290 L 1368.3333333333333,290 L 1368.3333333333333,340" stroke-opacity="1" stroke-width="1" stroke-linecap="butt" stroke-linejoin="miter" stroke-miterlimit="10"/></g><g><path fill="none" stroke="rgb(169,169,169)" d="M 1235,150 L 1235,160 L 1097.5,160 L 1097.5,190" stroke-opacity="1" stroke-width="1" stroke-linecap="butt" stroke-linejoin="miter" stroke-miterlimit="10"/></g><g><path fill="none" stroke="rgb(169,169,169)" d="M 1235,250 L 1235,340" stroke-opacity="1" stroke-width="1" stroke-linecap="butt" stroke-linejoin="miter" stroke-miterlimit="10"/></g><g><path fill="none" stroke="rgb(169,169,169)" d="M 1260,250 L 1260,280 L 1385,280 L 1385,340" stroke-opacity="1" stroke-width="1" stroke-linecap="butt" stroke-linejoin="miter" stroke-miterlimit="10"/></g><g><path fill="none" stroke="rgb(169,169,169)" d="M 1247.5,150 L 1247.5,190" stroke-opacity="1" stroke-width="1" stroke-linecap="butt" stroke-linejoin="miter" stroke-miterlimit="10"/></g><g><path fill="none" stroke="rgb(169,169,169)" d="M 1410,250 L 1410,260 L 1535,260 L 1535,340" stroke-opacity="1" stroke-width="1" stroke-linecap="butt" stroke-linejoin="miter" stroke-miterlimit="10"/></g><g><path fill="none" stroke="rgb(169,169,169)" d="M 1385,250 L 1385,270 L 1401.6666666666667,270 L 1401.6666666666667,340" stroke-opacity="1" stroke-width="1" stroke-linecap="butt" stroke-linejoin="miter" stroke-miterlimit="10"/></g><g><path fill="none" stroke="rgb(169,169,169)" d="M 1260,150 L 1260,170 L 1397.5,170 L 1397.5,190" stroke-opacity="1" stroke-width="1" stroke-linecap="butt" stroke-linejoin="miter" stroke-miterlimit="10"/></g><g><path fill="none" stroke="rgb(169,169,169)" d="M 1272.5,150 L 1272.5,160 L 1547.5,160 L 1547.5,190" stroke-opacity="1" stroke-width="1" stroke-linecap="butt" stroke-linejoin="miter" stroke-miterlimit="10"/></g><g><path fill="none" stroke="rgb(169,169,169)" d="M 653.75,60 L 653.75,70 L 1253.75,70 L 1253.75,90" stroke-opacity="1" stroke-width="1" stroke-linecap="butt" stroke-linejoin="miter" stroke-miterlimit="10"/></g><g transform="translate(616.25 0)"><svg svgBox="0 0 50 50" fill="msportalfx-svg-placeholder" role="presentation" focusable="false"><g><title/><path d="M49.7 25.7c.5-.5.4-1.3 0-1.8l-2.4-2.4L36.5 11c-.5-.5-1.2-.5-1.7 0s-.6 1.3 0 1.8l11.3 11.1c.5.5.5 1.3 0 1.8L34.6 37.2c-.5.5-.5 1.3 0 1.8s1.3.4 1.7 0L47 28.4l.1-.1 2.6-2.6zm-49.4 0c-.5-.5-.4-1.3 0-1.8l2.4-2.4L13.5 11c.5-.5 1.2-.5 1.7 0s.6 1.3 0 1.8L4.1 23.9c-.5.5-.5 1.3 0 1.8l11.3 11.5c.5.5.5 1.3 0 1.8s-1.3.4-1.7 0L2.8 28.5l-.1-.1-2.4-2.7z" fill="#3999C6"/><path d="M18.2 24.8c0 1.9-1.6 3.3-3.3 3.3s-3.5-1.6-3.5-3.3 1.4-3.3 3.5-3.3c2 0 3.3 1.6 3.3 3.3zm10.1 0c0 1.9-1.6 3.3-3.3 3.3s-3.5-1.6-3.5-3.3 1.6-3.3 3.5-3.3 3.3 1.6 3.3 3.3z" fill="#7fba00"/><circle cx="35.2" cy="24.8" r="3.3" fill="#7fba00"/></g></svg></g><g transform="translate(603.75 90)"><svg svgBox="0 0 50 50" fill="msportalfx-svg-placeholder" role="presentation" focusable="false"><g><title/><path d="M49.7 25.7c.5-.5.4-1.3 0-1.8l-2.4-2.4L36.5 11c-.5-.5-1.2-.5-1.7 0s-.6 1.3 0 1.8l11.3 11.1c.5.5.5 1.3 0 1.8L34.6 37.2c-.5.5-.5 1.3 0 1.8s1.3.4 1.7 0L47 28.4l.1-.1 2.6-2.6zm-49.4 0c-.5-.5-.4-1.3 0-1.8l2.4-2.4L13.5 11c.5-.5 1.2-.5 1.7 0s.6 1.3 0 1.8L4.1 23.9c-.5.5-.5 1.3 0 1.8l11.3 11.5c.5.5.5 1.3 0 1.8s-1.3.4-1.7 0L2.8 28.5l-.1-.1-2.4-2.7z" fill="#3999C6"/><path d="M28.4 24.8c0 1.9-1.6 3.3-3.3 3.3-1.7 0-3.5-1.6-3.5-3.3s1.4-3.3 3.5-3.3c2 0 3.3 1.6 3.3 3.3z" fill="#7fba00"/></g></svg></g><g transform="translate(166.25 190)"><svg svgBox="0 0 50 50" fill="msportalfx-svg-placeholder" role="presentation" focusable="false"><g><title/><path d="M3 0h40.205v50H3z" fill="#7fba00"/><path d="M19.19 4.915h18.921v11.888H19.19z"/><path d="M43.205 3.846h4.501v8.577h-4.501zm0 12.238h4.501v22.825h-4.501z" fill="#fcd116"/><path d="M20.809 31.718h3.243v13.391h-3.243zm-5.244 0h3.243v13.391h-3.243z"/><path opacity=".2" d="M17.636 37.365h-6.144V11.908h8.242v2.098H13.59v21.261h4.046z"/><path opacity=".2" d="M15.538 42.61H7.296V7.713h13.487v2.098H9.394v30.701h6.144zm17.582-2.466h-6.062v-17.31h4.74v-7.799h2.098v9.897h-4.74v13.114h3.964z"/><path d="M23.003 24.11a2.431 2.431 0 0 1-4.862 0 2.43 2.43 0 1 1 4.862 0zm9.843 8.233h4.322v12.365h-4.322z" fill="#e5e5e5"/></g></svg></g><g transform="translate(10 340)"><svg svgBox="0 0 50 50" fill="msportalfx-svg-placeholder" role="presentation" focusable="false"><g><title/><path d="M32.426 38.534H18.83c1.634 5.768-.561 6.595-10.175 6.595v3.02h32.692v-3.02c-9.614 0-10.557-.824-8.921-6.595" fill="#7a7a7a"/><path d="M46.98 2H2.718C1.214 2 .001 3.345.001 4.847v30.866c0 1.493 1.213 2.823 2.717 2.823H46.98c1.501 0 3.021-1.33 3.021-2.823V4.847C50.001 3.341 48.481 2 46.98 2" fill="#a0a1a2"/><path opacity=".2" d="M47.011 2.003l-.031-.002H2.717C1.213 2.001 0 3.345 0 4.848v30.865c0 1.494 1.213 2.824 2.717 2.824H3.77L47.011 2.003z" fill="#fff"/><path d="M46.098 5.848v28.841H3.79V5.848z" fill="#59b4d9"/><path d="M3.79 34.689h.058V5.849l38.68-.058h.002l-38.74.058z" fill="#59b4d9"/><path d="M8.655 45.128h32.692v3.021H8.655z" fill="#a0a1a2"/><path d="M25.518 4.095a.71.71 0 1 1-1.42 0 .71.71 0 0 1 1.42 0" fill="#b8d432"/><path d="M25.546 19.394a.278.278 0 0 1-.134-.038l-8.804-5.082a.267.267 0 0 1 0-.461l8.751-5.049a.268.268 0 0 1 .263 0l8.807 5.084a.264.264 0 0 1 .131.23.262.262 0 0 1-.131.23l-8.748 5.048a.27.27 0 0 1-.135.038" fill="#fff"/><path opacity=".7" d="M24.281 31.746a.251.251 0 0 1-.134-.036l-8.778-5.066a.26.26 0 0 1-.136-.231V16.247c0-.096.051-.183.136-.231a.263.263 0 0 1 .268 0l8.777 5.064a.28.28 0 0 1 .13.233v10.166a.272.272 0 0 1-.13.231.28.28 0 0 1-.133.036" fill="#fff"/><path opacity=".4" d="M26.766 31.746a.287.287 0 0 1-.138-.036.27.27 0 0 1-.129-.231V21.377c0-.094.051-.182.129-.231l8.777-5.064a.26.26 0 0 1 .264 0 .263.263 0 0 1 .135.23v10.101a.261.261 0 0 1-.135.231l-8.774 5.066a.236.236 0 0 1-.129.036" fill="#fff"/></g></svg></g><g transform="translate(460 340)"><svg svgBox="0 0 50 50" fill="msportalfx-svg-placeholder" role="presentation" focusable="false"><g><title/><path d="M21.667 0h6.667v5h-6.667zm-10 0h6.667v5h-6.667zM45 45h-3.333v5h5A3.333 3.333 0 0 0 50 46.667v-5h-5V45zM0 31.667h5v6.667H0zM21.667 45h6.667v5h-6.667zM45 31.667h5v6.667h-5zM31.667 45h6.667v5h-6.667zm-20 0h6.667v5h-6.667zM5 45v-3.333H0v5A3.333 3.333 0 0 0 3.333 50h5v-5H5zM0 11.667h5v6.667H0zM5 5h3.333V0h-5A3.334 3.334 0 0 0 0 3.333v5h5V5zM0 21.667h5v6.667H0zm45 0h5v6.667h-5zm0-10.001h5v6.667h-5zM31.666 0h6.667v5h-6.667zM45 5v3.333h5v-5A3.333 3.333 0 0 0 46.667 0h-5v5H45z" fill="#59b4d9"/><path d="M35.328 8.959H9.949c-.863 0-1.558.77-1.558 1.63v17.675c0 .855.695 1.617 1.558 1.617h25.379c.86 0 1.732-.762 1.732-1.617V10.59c.001-.863-.871-1.631-1.732-1.631" fill="#a0a1a2"/><path opacity=".2" d="M35.346 8.961l-.018-.002H9.949c-.863 0-1.558.77-1.558 1.63v17.674c0 .855.695 1.617 1.558 1.617h.604L35.346 8.961z" fill="#fff"/><path d="M34.881 27.678H10.564V11.163l24.317-.036z" fill="#59b4d9"/><path d="M23.022 10.159a.406.406 0 1 1-.812 0 .406.406 0 0 1 .812 0" fill="#b8d432"/><path d="M23.039 18.919a.158.158 0 0 1-.077-.022l-5.049-2.91a.154.154 0 0 1 0-.264l5.018-2.891a.156.156 0 0 1 .151 0l5.05 2.912a.152.152 0 0 1 .075.132.15.15 0 0 1-.075.132l-5.016 2.89a.151.151 0 0 1-.077.021" fill="#fff"/><path d="M31.531 35.535h-7.796c.937 3.303-.322 3.776-5.834 3.776v1.73h18.746v-1.729c-5.513-.001-6.054-.472-5.116-3.777" fill="#7a7a7a"/><path d="M39.877 14.614H14.498c-.863 0-1.558.77-1.558 1.63v17.675c0 .855.695 1.617 1.558 1.617h25.379c.86 0 1.732-.762 1.732-1.617V16.244c0-.862-.872-1.63-1.732-1.63" fill="#a0a1a2"/><path opacity=".2" d="M39.895 14.616l-.018-.002h-25.38c-.863 0-1.558.77-1.558 1.63v17.674c0 .855.695 1.617 1.558 1.617h.604l24.794-20.919z" fill="#fff"/><path d="M39.429 33.333H15.112V16.818l24.317-.036z" fill="#59b4d9"/><path d="M17.901 39.311h18.745v1.73H17.901z" fill="#a0a1a2"/><path d="M27.571 15.814a.406.406 0 1 1-.812 0 .406.406 0 0 1 .812 0" fill="#b8d432"/><path d="M27.587 24.575a.158.158 0 0 1-.077-.022l-5.049-2.91a.154.154 0 0 1 0-.264l5.018-2.891a.156.156 0 0 1 .151 0l5.05 2.912a.152.152 0 0 1 .075.132.15.15 0 0 1-.075.132l-5.016 2.89a.17.17 0 0 1-.077.021" fill="#fff"/><path opacity=".7" d="M26.861 31.648a.152.152 0 0 1-.077-.02l-5.033-2.901a.148.148 0 0 1-.078-.132v-5.822a.15.15 0 0 1 .078-.132.152.152 0 0 1 .154 0l5.033 2.9a.162.162 0 0 1 .075.133v5.822a.152.152 0 0 1-.075.132.17.17 0 0 1-.077.02" fill="#fff"/><path opacity=".4" d="M28.287 31.648a.168.168 0 0 1-.079-.02.156.156 0 0 1-.074-.132V25.71c0-.054.029-.104.074-.132l5.033-2.899a.153.153 0 0 1 .229.132v5.785a.148.148 0 0 1-.077.132l-5.031 2.901a.167.167 0 0 1-.075.019" fill="#fff"/></g></svg></g><g transform="translate(460 430)"><svg svgBox="0 0 50 50" fill="msportalfx-svg-placeholder" role="presentation" focusable="false"><g><title/><path d="M25.001 50a4.575 4.575 0 0 1-3.261-1.352L1.351 28.26A4.64 4.64 0 0 1 0 24.999c0-1.214.492-2.402 1.351-3.26L21.74 1.351a4.578 4.578 0 0 1 3.261-1.352c1.231 0 2.39.48 3.261 1.352l20.386 20.388A4.565 4.565 0 0 1 50 24.999a4.574 4.574 0 0 1-1.353 3.263L28.262 48.648A4.578 4.578 0 0 1 25.001 50" fill="#7fba00"/><path d="M45.613 24.66L39 18.048v4.668l-7.016-.006A7.276 7.276 0 0 0 27 17.69V11h4.613L25 4.387 18.388 11H23v6.689a7.28 7.28 0 0 0-4.981 5.008L11 22.691v-4.618l-6.613 6.613L11 31.298V26.63l7.022.006A7.278 7.278 0 0 0 23 31.632v4.636c-1 .728-2.528 2.258-2.528 4.04 0 2.481 2.033 4.5 4.514 4.5s4.51-2.019 4.51-4.5c0-1.762-1.496-3.274-2.496-4.013v-4.663a7.28 7.28 0 0 0 4.975-4.983l7.025.006v4.618l6.613-6.613z" fill="#fff"/><path d="M25 19.402c-2.899 0-5.258 2.359-5.258 5.258s2.359 5.258 5.258 5.258 5.258-2.358 5.258-5.258-2.359-5.258-5.258-5.258z" fill="#59b4d9"/><path opacity=".15" d="M28.262 1.351a4.578 4.578 0 0 0-3.261-1.352c-1.231 0-2.389.48-3.26 1.352L1.352 21.739A4.635 4.635 0 0 0 0 24.999c0 1.215.492 2.403 1.352 3.261l11.543 11.544L34.61 7.698l-6.348-6.347z" fill="#fff"/></g></svg></g><g transform="translate(176.66666666666666 530)"><svg svgBox="0 0 50 50" fill="msportalfx-svg-placeholder" role="presentation" focusable="false"><g><title/><polygon points="27.1,21.8 22.9,21.8 19.7,50 30.3,50" fill="#59b4d9"/><path d="M40.3 22.5C40.3 14 33.5 7.1 25 7.1S9.7 14 9.7 22.5c0 5.6 3 10.5 7.6 13.2.5-.8.9-1.6 1.3-2.3-3.7-2.2-6.2-6.2-6.2-10.9 0-7 5.7-12.7 12.7-12.7 7 0 12.7 5.7 12.7 12.7 0 4.6-2.5 8.7-6.2 10.9.4.7.9 1.5 1.3 2.3 4.4-2.7 7.4-7.6 7.4-13.2" opacity=".5" fill="#3e3e3e"/><path d="M13.7 41.9c.4-.8.9-1.6 1.3-2.4-5.9-3.4-9.8-9.8-9.8-17.1C5.2 11.6 14.1 2.7 25 2.7s19.8 8.9 19.8 19.8c0 7.3-4 13.6-9.8 17.1.4.8.9 1.6 1.3 2.4 6.7-3.9 11.2-11.1 11.2-19.4C47.5 10.1 37.4 0 25 0S2.5 10.1 2.5 22.5c0 8.2 4.6 15.5 11.2 19.4" opacity=".2" fill="#3e3e3e"/><circle cx="25" cy="22.6" r="6.8" fill="#0072c6"/></g></svg></g><g transform="translate(326.6666666666667 530)"><svg svgBox="0 0 50 50" fill="msportalfx-svg-placeholder" role="presentation" focusable="false"><g><title/><polygon points="27.1,21.8 22.9,21.8 19.7,50 30.3,50" fill="#59b4d9"/><path d="M40.3 22.5C40.3 14 33.5 7.1 25 7.1S9.7 14 9.7 22.5c0 5.6 3 10.5 7.6 13.2.5-.8.9-1.6 1.3-2.3-3.7-2.2-6.2-6.2-6.2-10.9 0-7 5.7-12.7 12.7-12.7 7 0 12.7 5.7 12.7 12.7 0 4.6-2.5 8.7-6.2 10.9.4.7.9 1.5 1.3 2.3 4.4-2.7 7.4-7.6 7.4-13.2" opacity=".5" fill="#3e3e3e"/><path d="M13.7 41.9c.4-.8.9-1.6 1.3-2.4-5.9-3.4-9.8-9.8-9.8-17.1C5.2 11.6 14.1 2.7 25 2.7s19.8 8.9 19.8 19.8c0 7.3-4 13.6-9.8 17.1.4.8.9 1.6 1.3 2.4 6.7-3.9 11.2-11.1 11.2-19.4C47.5 10.1 37.4 0 25 0S2.5 10.1 2.5 22.5c0 8.2 4.6 15.5 11.2 19.4" opacity=".2" fill="#3e3e3e"/><circle cx="25" cy="22.6" r="6.8" fill="#0072c6"/></g></svg></g><g transform="translate(476.6666666666667 530)"><svg svgBox="0 0 50 50" fill="msportalfx-svg-placeholder" role="presentation" focusable="false"><g><title/><path d="M.5 45.127c0 1.108.898 2.007 2.007 2.007h45.986a2.007 2.007 0 0 0 2.007-2.007V13.798H.5v31.329z" fill="#59b4d9"/><path d="M48.493 4.5H2.507A2.006 2.006 0 0 0 .5 6.507v10.627h50V6.507A2.007 2.007 0 0 0 48.493 4.5" fill="#a0a1a2"/><path opacity=".2" d="M2.514 4.5A2.007 2.007 0 0 0 .507 6.507v38.62c0 1.108.899 2.007 2.007 2.007h2.188L44.12 4.5H2.514z" fill="#fff"/><path d="M13.357 9.279h33.671v3.942H13.357z" fill="#fff"/><path d="M11.81 11.183a4.879 4.879 0 1 1-9.757-.001 4.879 4.879 0 0 1 9.757.001" fill="#59b4d9"/><path d="M6.416 11.732l2.213 2.336H7.428L4.469 11.25l2.948-2.818h1.198l-2.199 2.322h5.393v.978zm11.51 24.844c0 .57-.203 1.037-.609 1.4s-.941.545-1.605.545c-.594 0-1.098-.186-1.512-.557s-.621-.834-.621-1.389c0-.563.207-1.023.621-1.383s.938-.539 1.57-.539c.609 0 1.121.184 1.535.551s.621.825.621 1.372zm8.904 0c0 .57-.203 1.037-.609 1.4s-.941.545-1.605.545c-.594 0-1.098-.186-1.512-.557s-.621-.834-.621-1.389c0-.563.207-1.023.621-1.383s.938-.539 1.57-.539c.609 0 1.121.184 1.535.551s.621.825.621 1.372zm8.903 0c0 .57-.203 1.037-.609 1.4s-.941.545-1.605.545c-.594 0-1.098-.186-1.512-.557s-.621-.834-.621-1.389c0-.563.207-1.023.621-1.383s.938-.539 1.57-.539c.609 0 1.121.184 1.535.551s.621.825.621 1.372z" fill="#fff"/></g></svg></g><g transform="translate(610 340)"><svg svgBox="0 0 50 50" fill="msportalfx-svg-placeholder" role="presentation" focusable="false"><g><title/><path d="M21.667 0h6.667v5h-6.667zm-10 0h6.667v5h-6.667zM45 45h-3.333v5h5A3.333 3.333 0 0 0 50 46.667v-5h-5V45zM0 31.667h5v6.667H0zM21.667 45h6.667v5h-6.667zM45 31.667h5v6.667h-5zM31.667 45h6.667v5h-6.667zm-20 0h6.667v5h-6.667zM5 45v-3.333H0v5A3.333 3.333 0 0 0 3.333 50h5v-5H5zM0 11.667h5v6.667H0zM5 5h3.333V0h-5A3.334 3.334 0 0 0 0 3.333v5h5V5zM0 21.667h5v6.667H0zm45 0h5v6.667h-5zm0-10.001h5v6.667h-5zM31.666 0h6.667v5h-6.667zM45 5v3.333h5v-5A3.333 3.333 0 0 0 46.667 0h-5v5H45z" fill="#59b4d9"/><path d="M35.328 8.959H9.949c-.863 0-1.558.77-1.558 1.63v17.675c0 .855.695 1.617 1.558 1.617h25.379c.86 0 1.732-.762 1.732-1.617V10.59c.001-.863-.871-1.631-1.732-1.631" fill="#a0a1a2"/><path opacity=".2" d="M35.346 8.961l-.018-.002H9.949c-.863 0-1.558.77-1.558 1.63v17.674c0 .855.695 1.617 1.558 1.617h.604L35.346 8.961z" fill="#fff"/><path d="M34.881 27.678H10.564V11.163l24.317-.036z" fill="#59b4d9"/><path d="M23.022 10.159a.406.406 0 1 1-.812 0 .406.406 0 0 1 .812 0" fill="#b8d432"/><path d="M23.039 18.919a.158.158 0 0 1-.077-.022l-5.049-2.91a.154.154 0 0 1 0-.264l5.018-2.891a.156.156 0 0 1 .151 0l5.05 2.912a.152.152 0 0 1 .075.132.15.15 0 0 1-.075.132l-5.016 2.89a.151.151 0 0 1-.077.021" fill="#fff"/><path d="M31.531 35.535h-7.796c.937 3.303-.322 3.776-5.834 3.776v1.73h18.746v-1.729c-5.513-.001-6.054-.472-5.116-3.777" fill="#7a7a7a"/><path d="M39.877 14.614H14.498c-.863 0-1.558.77-1.558 1.63v17.675c0 .855.695 1.617 1.558 1.617h25.379c.86 0 1.732-.762 1.732-1.617V16.244c0-.862-.872-1.63-1.732-1.63" fill="#a0a1a2"/><path opacity=".2" d="M39.895 14.616l-.018-.002h-25.38c-.863 0-1.558.77-1.558 1.63v17.674c0 .855.695 1.617 1.558 1.617h.604l24.794-20.919z" fill="#fff"/><path d="M39.429 33.333H15.112V16.818l24.317-.036z" fill="#59b4d9"/><path d="M17.901 39.311h18.745v1.73H17.901z" fill="#a0a1a2"/><path d="M27.571 15.814a.406.406 0 1 1-.812 0 .406.406 0 0 1 .812 0" fill="#b8d432"/><path d="M27.587 24.575a.158.158 0 0 1-.077-.022l-5.049-2.91a.154.154 0 0 1 0-.264l5.018-2.891a.156.156 0 0 1 .151 0l5.05 2.912a.152.152 0 0 1 .075.132.15.15 0 0 1-.075.132l-5.016 2.89a.17.17 0 0 1-.077.021" fill="#fff"/><path opacity=".7" d="M26.861 31.648a.152.152 0 0 1-.077-.02l-5.033-2.901a.148.148 0 0 1-.078-.132v-5.822a.15.15 0 0 1 .078-.132.152.152 0 0 1 .154 0l5.033 2.9a.162.162 0 0 1 .075.133v5.822a.152.152 0 0 1-.075.132.17.17 0 0 1-.077.02" fill="#fff"/><path opacity=".4" d="M28.287 31.648a.168.168 0 0 1-.079-.02.156.156 0 0 1-.074-.132V25.71c0-.054.029-.104.074-.132l5.033-2.899a.153.153 0 0 1 .229.132v5.785a.148.148 0 0 1-.077.132l-5.031 2.901a.167.167 0 0 1-.075.019" fill="#fff"/></g></svg></g><g transform="translate(643.3333333333334 430)"><svg svgBox="0 0 50 50" fill="msportalfx-svg-placeholder" role="presentation" focusable="false"><g><title/><path d="M25.001 50a4.575 4.575 0 0 1-3.261-1.352L1.351 28.26A4.64 4.64 0 0 1 0 24.999c0-1.214.492-2.402 1.351-3.26L21.74 1.351a4.578 4.578 0 0 1 3.261-1.352c1.231 0 2.39.48 3.261 1.352l20.386 20.388A4.565 4.565 0 0 1 50 24.999a4.574 4.574 0 0 1-1.353 3.263L28.262 48.648A4.578 4.578 0 0 1 25.001 50" fill="#7fba00"/><path d="M45.613 24.66L39 18.048v4.668l-7.016-.006A7.276 7.276 0 0 0 27 17.69V11h4.613L25 4.387 18.388 11H23v6.689a7.28 7.28 0 0 0-4.981 5.008L11 22.691v-4.618l-6.613 6.613L11 31.298V26.63l7.022.006A7.278 7.278 0 0 0 23 31.632v4.636c-1 .728-2.528 2.258-2.528 4.04 0 2.481 2.033 4.5 4.514 4.5s4.51-2.019 4.51-4.5c0-1.762-1.496-3.274-2.496-4.013v-4.663a7.28 7.28 0 0 0 4.975-4.983l7.025.006v4.618l6.613-6.613z" fill="#fff"/><path d="M25 19.402c-2.899 0-5.258 2.359-5.258 5.258s2.359 5.258 5.258 5.258 5.258-2.358 5.258-5.258-2.359-5.258-5.258-5.258z" fill="#59b4d9"/><path opacity=".15" d="M28.262 1.351a4.578 4.578 0 0 0-3.261-1.352c-1.231 0-2.389.48-3.26 1.352L1.352 21.739A4.635 4.635 0 0 0 0 24.999c0 1.215.492 2.403 1.352 3.261l11.543 11.544L34.61 7.698l-6.348-6.347z" fill="#fff"/></g></svg></g><g transform="translate(626.6666666666666 530)"><svg svgBox="0 0 50 50" fill="msportalfx-svg-placeholder" role="presentation" focusable="false"><g><title/><polygon points="27.1,21.8 22.9,21.8 19.7,50 30.3,50" fill="#59b4d9"/><path d="M40.3 22.5C40.3 14 33.5 7.1 25 7.1S9.7 14 9.7 22.5c0 5.6 3 10.5 7.6 13.2.5-.8.9-1.6 1.3-2.3-3.7-2.2-6.2-6.2-6.2-10.9 0-7 5.7-12.7 12.7-12.7 7 0 12.7 5.7 12.7 12.7 0 4.6-2.5 8.7-6.2 10.9.4.7.9 1.5 1.3 2.3 4.4-2.7 7.4-7.6 7.4-13.2" opacity=".5" fill="#3e3e3e"/><path d="M13.7 41.9c.4-.8.9-1.6 1.3-2.4-5.9-3.4-9.8-9.8-9.8-17.1C5.2 11.6 14.1 2.7 25 2.7s19.8 8.9 19.8 19.8c0 7.3-4 13.6-9.8 17.1.4.8.9 1.6 1.3 2.4 6.7-3.9 11.2-11.1 11.2-19.4C47.5 10.1 37.4 0 25 0S2.5 10.1 2.5 22.5c0 8.2 4.6 15.5 11.2 19.4" opacity=".2" fill="#3e3e3e"/><circle cx="25" cy="22.6" r="6.8" fill="#0072c6"/></g></svg></g><g transform="translate(776.6666666666666 530)"><svg svgBox="0 0 50 50" fill="msportalfx-svg-placeholder" role="presentation" focusable="false"><g><title/><polygon points="27.1,21.8 22.9,21.8 19.7,50 30.3,50" fill="#59b4d9"/><path d="M40.3 22.5C40.3 14 33.5 7.1 25 7.1S9.7 14 9.7 22.5c0 5.6 3 10.5 7.6 13.2.5-.8.9-1.6 1.3-2.3-3.7-2.2-6.2-6.2-6.2-10.9 0-7 5.7-12.7 12.7-12.7 7 0 12.7 5.7 12.7 12.7 0 4.6-2.5 8.7-6.2 10.9.4.7.9 1.5 1.3 2.3 4.4-2.7 7.4-7.6 7.4-13.2" opacity=".5" fill="#3e3e3e"/><path d="M13.7 41.9c.4-.8.9-1.6 1.3-2.4-5.9-3.4-9.8-9.8-9.8-17.1C5.2 11.6 14.1 2.7 25 2.7s19.8 8.9 19.8 19.8c0 7.3-4 13.6-9.8 17.1.4.8.9 1.6 1.3 2.4 6.7-3.9 11.2-11.1 11.2-19.4C47.5 10.1 37.4 0 25 0S2.5 10.1 2.5 22.5c0 8.2 4.6 15.5 11.2 19.4" opacity=".2" fill="#3e3e3e"/><circle cx="25" cy="22.6" r="6.8" fill="#0072c6"/></g></svg></g><g transform="translate(926.6666666666666 530)"><svg svgBox="0 0 50 50" fill="msportalfx-svg-placeholder" role="presentation" focusable="false"><g><title/><path d="M.5 45.127c0 1.108.898 2.007 2.007 2.007h45.986a2.007 2.007 0 0 0 2.007-2.007V13.798H.5v31.329z" fill="#59b4d9"/><path d="M48.493 4.5H2.507A2.006 2.006 0 0 0 .5 6.507v10.627h50V6.507A2.007 2.007 0 0 0 48.493 4.5" fill="#a0a1a2"/><path opacity=".2" d="M2.514 4.5A2.007 2.007 0 0 0 .507 6.507v38.62c0 1.108.899 2.007 2.007 2.007h2.188L44.12 4.5H2.514z" fill="#fff"/><path d="M13.357 9.279h33.671v3.942H13.357z" fill="#fff"/><path d="M11.81 11.183a4.879 4.879 0 1 1-9.757-.001 4.879 4.879 0 0 1 9.757.001" fill="#59b4d9"/><path d="M6.416 11.732l2.213 2.336H7.428L4.469 11.25l2.948-2.818h1.198l-2.199 2.322h5.393v.978zm11.51 24.844c0 .57-.203 1.037-.609 1.4s-.941.545-1.605.545c-.594 0-1.098-.186-1.512-.557s-.621-.834-.621-1.389c0-.563.207-1.023.621-1.383s.938-.539 1.57-.539c.609 0 1.121.184 1.535.551s.621.825.621 1.372zm8.904 0c0 .57-.203 1.037-.609 1.4s-.941.545-1.605.545c-.594 0-1.098-.186-1.512-.557s-.621-.834-.621-1.389c0-.563.207-1.023.621-1.383s.938-.539 1.57-.539c.609 0 1.121.184 1.535.551s.621.825.621 1.372zm8.903 0c0 .57-.203 1.037-.609 1.4s-.941.545-1.605.545c-.594 0-1.098-.186-1.512-.557s-.621-.834-.621-1.389c0-.563.207-1.023.621-1.383s.938-.539 1.57-.539c.609 0 1.121.184 1.535.551s.621.825.621 1.372z" fill="#fff"/></g></svg></g><g transform="translate(160 340)"><svg svgBox="0 0 50 50" fill="msportalfx-svg-placeholder" role="presentation" focusable="false"><g><title/><path d="M.5 45.127c0 1.108.898 2.007 2.007 2.007h45.986a2.007 2.007 0 0 0 2.007-2.007V13.798H.5v31.329z" fill="#59b4d9"/><path d="M48.493 4.5H2.507A2.006 2.006 0 0 0 .5 6.507v10.627h50V6.507A2.007 2.007 0 0 0 48.493 4.5" fill="#a0a1a2"/><path opacity=".2" d="M2.514 4.5A2.007 2.007 0 0 0 .507 6.507v38.62c0 1.108.899 2.007 2.007 2.007h2.188L44.12 4.5H2.514z" fill="#fff"/><path d="M13.357 9.279h33.671v3.942H13.357z" fill="#fff"/><path d="M11.81 11.183a4.879 4.879 0 1 1-9.757-.001 4.879 4.879 0 0 1 9.757.001" fill="#59b4d9"/><path d="M6.416 11.732l2.213 2.336H7.428L4.469 11.25l2.948-2.818h1.198l-2.199 2.322h5.393v.978zm11.51 24.844c0 .57-.203 1.037-.609 1.4s-.941.545-1.605.545c-.594 0-1.098-.186-1.512-.557s-.621-.834-.621-1.389c0-.563.207-1.023.621-1.383s.938-.539 1.57-.539c.609 0 1.121.184 1.535.551s.621.825.621 1.372zm8.904 0c0 .57-.203 1.037-.609 1.4s-.941.545-1.605.545c-.594 0-1.098-.186-1.512-.557s-.621-.834-.621-1.389c0-.563.207-1.023.621-1.383s.938-.539 1.57-.539c.609 0 1.121.184 1.535.551s.621.825.621 1.372zm8.903 0c0 .57-.203 1.037-.609 1.4s-.941.545-1.605.545c-.594 0-1.098-.186-1.512-.557s-.621-.834-.621-1.389c0-.563.207-1.023.621-1.383s.938-.539 1.57-.539c.609 0 1.121.184 1.535.551s.621.825.621 1.372z" fill="#fff"/></g></svg></g><g transform="translate(453.75 190)"><svg svgBox="0 0 50 50" fill="msportalfx-svg-placeholder" role="presentation" focusable="false"><g><title/><path d="M3 0h40.205v50H3z" fill="#7fba00"/><path d="M19.19 4.915h18.921v11.888H19.19z"/><path d="M43.205 3.846h4.501v8.577h-4.501zm0 12.238h4.501v22.825h-4.501z" fill="#fcd116"/><path d="M20.809 31.718h3.243v13.391h-3.243zm-5.244 0h3.243v13.391h-3.243z"/><path opacity=".2" d="M17.636 37.365h-6.144V11.908h8.242v2.098H13.59v21.261h4.046z"/><path opacity=".2" d="M15.538 42.61H7.296V7.713h13.487v2.098H9.394v30.701h6.144zm17.582-2.466h-6.062v-17.31h4.74v-7.799h2.098v9.897h-4.74v13.114h3.964z"/><path d="M23.003 24.11a2.431 2.431 0 0 1-4.862 0 2.43 2.43 0 1 1 4.862 0zm9.843 8.233h4.322v12.365h-4.322z" fill="#e5e5e5"/></g></svg></g><g transform="translate(310 340)"><svg svgBox="0 0 50 50" fill="msportalfx-svg-placeholder" role="presentation" focusable="false"><g><title/><path d="M32.426 38.534H18.83c1.634 5.768-.561 6.595-10.175 6.595v3.02h32.692v-3.02c-9.614 0-10.557-.824-8.921-6.595" fill="#7a7a7a"/><path d="M46.98 2H2.718C1.214 2 .001 3.345.001 4.847v30.866c0 1.493 1.213 2.823 2.717 2.823H46.98c1.501 0 3.021-1.33 3.021-2.823V4.847C50.001 3.341 48.481 2 46.98 2" fill="#a0a1a2"/><path opacity=".2" d="M47.011 2.003l-.031-.002H2.717C1.213 2.001 0 3.345 0 4.848v30.865c0 1.494 1.213 2.824 2.717 2.824H3.77L47.011 2.003z" fill="#fff"/><path d="M46.098 5.848v28.841H3.79V5.848z" fill="#59b4d9"/><path d="M3.79 34.689h.058V5.849l38.68-.058h.002l-38.74.058z" fill="#59b4d9"/><path d="M8.655 45.128h32.692v3.021H8.655z" fill="#a0a1a2"/><path d="M25.518 4.095a.71.71 0 1 1-1.42 0 .71.71 0 0 1 1.42 0" fill="#b8d432"/><path d="M25.546 19.394a.278.278 0 0 1-.134-.038l-8.804-5.082a.267.267 0 0 1 0-.461l8.751-5.049a.268.268 0 0 1 .263 0l8.807 5.084a.264.264 0 0 1 .131.23.262.262 0 0 1-.131.23l-8.748 5.048a.27.27 0 0 1-.135.038" fill="#fff"/><path opacity=".7" d="M24.281 31.746a.251.251 0 0 1-.134-.036l-8.778-5.066a.26.26 0 0 1-.136-.231V16.247c0-.096.051-.183.136-.231a.263.263 0 0 1 .268 0l8.777 5.064a.28.28 0 0 1 .13.233v10.166a.272.272 0 0 1-.13.231.28.28 0 0 1-.133.036" fill="#fff"/><path opacity=".4" d="M26.766 31.746a.287.287 0 0 1-.138-.036.27.27 0 0 1-.129-.231V21.377c0-.094.051-.182.129-.231l8.777-5.064a.26.26 0 0 1 .264 0 .263.263 0 0 1 .135.23v10.101a.261.261 0 0 1-.135.231l-8.774 5.066a.236.236 0 0 1-.129.036" fill="#fff"/></g></svg></g><g transform="translate(603.75 190)"><svg svgBox="0 0 50 50" fill="msportalfx-svg-placeholder" role="presentation" focusable="false"><g><title/><path d="M3 0h40.205v50H3z" fill="#7fba00"/><path d="M19.19 4.915h18.921v11.888H19.19z"/><path d="M43.205 3.846h4.501v8.577h-4.501zm0 12.238h4.501v22.825h-4.501z" fill="#fcd116"/><path d="M20.809 31.718h3.243v13.391h-3.243zm-5.244 0h3.243v13.391h-3.243z"/><path opacity=".2" d="M17.636 37.365h-6.144V11.908h8.242v2.098H13.59v21.261h4.046z"/><path opacity=".2" d="M15.538 42.61H7.296V7.713h13.487v2.098H9.394v30.701h6.144zm17.582-2.466h-6.062v-17.31h4.74v-7.799h2.098v9.897h-4.74v13.114h3.964z"/><path d="M23.003 24.11a2.431 2.431 0 0 1-4.862 0 2.43 2.43 0 1 1 4.862 0zm9.843 8.233h4.322v12.365h-4.322z" fill="#e5e5e5"/></g></svg></g><g transform="translate(760 340)"><svg svgBox="0 0 50 50" fill="msportalfx-svg-placeholder" role="presentation" focusable="false"><g><title/><path d="M32.426 38.534H18.83c1.634 5.768-.561 6.595-10.175 6.595v3.02h32.692v-3.02c-9.614 0-10.557-.824-8.921-6.595" fill="#7a7a7a"/><path d="M46.98 2H2.718C1.214 2 .001 3.345.001 4.847v30.866c0 1.493 1.213 2.823 2.717 2.823H46.98c1.501 0 3.021-1.33 3.021-2.823V4.847C50.001 3.341 48.481 2 46.98 2" fill="#a0a1a2"/><path opacity=".2" d="M47.011 2.003l-.031-.002H2.717C1.213 2.001 0 3.345 0 4.848v30.865c0 1.494 1.213 2.824 2.717 2.824H3.77L47.011 2.003z" fill="#fff"/><path d="M46.098 5.848v28.841H3.79V5.848z" fill="#59b4d9"/><path d="M3.79 34.689h.058V5.849l38.68-.058h.002l-38.74.058z" fill="#59b4d9"/><path d="M8.655 45.128h32.692v3.021H8.655z" fill="#a0a1a2"/><path d="M25.518 4.095a.71.71 0 1 1-1.42 0 .71.71 0 0 1 1.42 0" fill="#b8d432"/><path d="M25.546 19.394a.278.278 0 0 1-.134-.038l-8.804-5.082a.267.267 0 0 1 0-.461l8.751-5.049a.268.268 0 0 1 .263 0l8.807 5.084a.264.264 0 0 1 .131.23.262.262 0 0 1-.131.23l-8.748 5.048a.27.27 0 0 1-.135.038" fill="#fff"/><path opacity=".7" d="M24.281 31.746a.251.251 0 0 1-.134-.036l-8.778-5.066a.26.26 0 0 1-.136-.231V16.247c0-.096.051-.183.136-.231a.263.263 0 0 1 .268 0l8.777 5.064a.28.28 0 0 1 .13.233v10.166a.272.272 0 0 1-.13.231.28.28 0 0 1-.133.036" fill="#fff"/><path opacity=".4" d="M26.766 31.746a.287.287 0 0 1-.138-.036.27.27 0 0 1-.129-.231V21.377c0-.094.051-.182.129-.231l8.777-5.064a.26.26 0 0 1 .264 0 .263.263 0 0 1 .135.23v10.101a.261.261 0 0 1-.135.231l-8.774 5.066a.236.236 0 0 1-.129.036" fill="#fff"/></g></svg></g><g transform="translate(753.75 190)"><svg svgBox="0 0 50 50" fill="msportalfx-svg-placeholder" role="presentation" focusable="false"><g><title/><path d="M3 0h40.205v50H3z" fill="#7fba00"/><path d="M19.19 4.915h18.921v11.888H19.19z"/><path d="M43.205 3.846h4.501v8.577h-4.501zm0 12.238h4.501v22.825h-4.501z" fill="#fcd116"/><path d="M20.809 31.718h3.243v13.391h-3.243zm-5.244 0h3.243v13.391h-3.243z"/><path opacity=".2" d="M17.636 37.365h-6.144V11.908h8.242v2.098H13.59v21.261h4.046z"/><path opacity=".2" d="M15.538 42.61H7.296V7.713h13.487v2.098H9.394v30.701h6.144zm17.582-2.466h-6.062v-17.31h4.74v-7.799h2.098v9.897h-4.74v13.114h3.964z"/><path d="M23.003 24.11a2.431 2.431 0 0 1-4.862 0 2.43 2.43 0 1 1 4.862 0zm9.843 8.233h4.322v12.365h-4.322z" fill="#e5e5e5"/></g></svg></g><g transform="translate(910 340)"><svg svgBox="0 0 50 50" fill="msportalfx-svg-placeholder" role="presentation" focusable="false"><g><title/><path d="M32.426 38.534H18.83c1.634 5.768-.561 6.595-10.175 6.595v3.02h32.692v-3.02c-9.614 0-10.557-.824-8.921-6.595" fill="#7a7a7a"/><path d="M46.98 2H2.718C1.214 2 .001 3.345.001 4.847v30.866c0 1.493 1.213 2.823 2.717 2.823H46.98c1.501 0 3.021-1.33 3.021-2.823V4.847C50.001 3.341 48.481 2 46.98 2" fill="#a0a1a2"/><path opacity=".2" d="M47.011 2.003l-.031-.002H2.717C1.213 2.001 0 3.345 0 4.848v30.865c0 1.494 1.213 2.824 2.717 2.824H3.77L47.011 2.003z" fill="#fff"/><path d="M46.098 5.848v28.841H3.79V5.848z" fill="#59b4d9"/><path d="M3.79 34.689h.058V5.849l38.68-.058h.002l-38.74.058z" fill="#59b4d9"/><path d="M8.655 45.128h32.692v3.021H8.655z" fill="#a0a1a2"/><path d="M25.518 4.095a.71.71 0 1 1-1.42 0 .71.71 0 0 1 1.42 0" fill="#b8d432"/><path d="M25.546 19.394a.278.278 0 0 1-.134-.038l-8.804-5.082a.267.267 0 0 1 0-.461l8.751-5.049a.268.268 0 0 1 .263 0l8.807 5.084a.264.264 0 0 1 .131.23.262.262 0 0 1-.131.23l-8.748 5.048a.27.27 0 0 1-.135.038" fill="#fff"/><path opacity=".7" d="M24.281 31.746a.251.251 0 0 1-.134-.036l-8.778-5.066a.26.26 0 0 1-.136-.231V16.247c0-.096.051-.183.136-.231a.263.263 0 0 1 .268 0l8.777 5.064a.28.28 0 0 1 .13.233v10.166a.272.272 0 0 1-.13.231.28.28 0 0 1-.133.036" fill="#fff"/><path opacity=".4" d="M26.766 31.746a.287.287 0 0 1-.138-.036.27.27 0 0 1-.129-.231V21.377c0-.094.051-.182.129-.231l8.777-5.064a.26.26 0 0 1 .264 0 .263.263 0 0 1 .135.23v10.101a.261.261 0 0 1-.135.231l-8.774 5.066a.236.236 0 0 1-.129.036" fill="#fff"/></g></svg></g><g transform="translate(903.75 190)"><svg svgBox="0 0 50 50" fill="msportalfx-svg-placeholder" role="presentation" focusable="false"><g><title/><path d="M38.2 6c-11-1.2-12.9-6-12.9-6S22.8 6.2 7 6.2v25.6c0 3.1 1.7 6 4.1 8.5 5.4 5.7 14.2 9.6 14.2 9.6s18.3-8 18.3-18.1V6.2c-2 0-3.8-.1-5.4-.2z" fill="#3999C6"/><path opacity=".4" d="M29.9 16.5L38.2 6c-11-1.2-12.9-6-12.9-6S22.8 6.2 7 6.2v25.6c0 3.1 1.7 6 4.1 8.5l6.2-7.8 12.6-16z" fill="#59b4d9"/><g fill="#fff"><path opacity=".3" d="M10.8 24.4v6.1c0 2.5 1.4 4.8 3.3 6.8 4.3 4.6 11.3 7.6 11.3 7.6V24.4H10.8z"/><path opacity=".7" d="M25.3 44.9s14.6-6.4 14.6-14.4v-6.1H25.3v20.5zm0-39.8s-2 5-14.6 5v14.3h14.6V5.1z"/><path opacity=".3" d="M35.5 9.9c-8.7-1-10.2-4.7-10.2-4.7v19.2h14.6V10.1c-1.6 0-3.1-.1-4.4-.2z"/></g></g></svg></g><g transform="translate(1228.75 90)"><svg svgBox="0 0 50 50" fill="msportalfx-svg-placeholder" role="presentation" focusable="false"><g><title/><path d="M49.7 25.7c.5-.5.4-1.3 0-1.8l-2.4-2.4L36.5 11c-.5-.5-1.2-.5-1.7 0s-.6 1.3 0 1.8l11.3 11.1c.5.5.5 1.3 0 1.8L34.6 37.2c-.5.5-.5 1.3 0 1.8s1.3.4 1.7 0L47 28.4l.1-.1 2.6-2.6zm-49.4 0c-.5-.5-.4-1.3 0-1.8l2.4-2.4L13.5 11c.5-.5 1.2-.5 1.7 0s.6 1.3 0 1.8L4.1 23.9c-.5.5-.5 1.3 0 1.8l11.3 11.5c.5.5.5 1.3 0 1.8s-1.3.4-1.7 0L2.8 28.5l-.1-.1-2.4-2.7z" fill="#3999C6"/><path d="M28.4 24.8c0 1.9-1.6 3.3-3.3 3.3-1.7 0-3.5-1.6-3.5-3.3s1.4-3.3 3.5-3.3c2 0 3.3 1.6 3.3 3.3z" fill="#7fba00"/></g></svg></g><g transform="translate(1072.5 190)"><svg svgBox="0 0 50 50" fill="msportalfx-svg-placeholder" role="presentation" focusable="false"><g><title/><path d="M3 0h40.205v50H3z" fill="#7fba00"/><path d="M19.19 4.915h18.921v11.888H19.19z"/><path d="M43.205 3.846h4.501v8.577h-4.501zm0 12.238h4.501v22.825h-4.501z" fill="#fcd116"/><path d="M20.809 31.718h3.243v13.391h-3.243zm-5.244 0h3.243v13.391h-3.243z"/><path opacity=".2" d="M17.636 37.365h-6.144V11.908h8.242v2.098H13.59v21.261h4.046z"/><path opacity=".2" d="M15.538 42.61H7.296V7.713h13.487v2.098H9.394v30.701h6.144zm17.582-2.466h-6.062v-17.31h4.74v-7.799h2.098v9.897h-4.74v13.114h3.964z"/><path d="M23.003 24.11a2.431 2.431 0 0 1-4.862 0 2.43 2.43 0 1 1 4.862 0zm9.843 8.233h4.322v12.365h-4.322z" fill="#e5e5e5"/></g></svg></g><g transform="translate(1060 340)"><svg svgBox="0 0 50 50" fill="msportalfx-svg-placeholder" role="presentation" focusable="false"><g><title/><path d="M32.426 38.534H18.83c1.634 5.768-.561 6.595-10.175 6.595v3.02h32.692v-3.02c-9.614 0-10.557-.824-8.921-6.595" fill="#7a7a7a"/><path d="M46.98 2H2.718C1.214 2 .001 3.345.001 4.847v30.866c0 1.493 1.213 2.823 2.717 2.823H46.98c1.501 0 3.021-1.33 3.021-2.823V4.847C50.001 3.341 48.481 2 46.98 2" fill="#a0a1a2"/><path opacity=".2" d="M47.011 2.003l-.031-.002H2.717C1.213 2.001 0 3.345 0 4.848v30.865c0 1.494 1.213 2.824 2.717 2.824H3.77L47.011 2.003z" fill="#fff"/><path d="M46.098 5.848v28.841H3.79V5.848z" fill="#59b4d9"/><path d="M3.79 34.689h.058V5.849l38.68-.058h.002l-38.74.058z" fill="#59b4d9"/><path d="M8.655 45.128h32.692v3.021H8.655z" fill="#a0a1a2"/><path d="M25.518 4.095a.71.71 0 1 1-1.42 0 .71.71 0 0 1 1.42 0" fill="#b8d432"/><path d="M25.546 19.394a.278.278 0 0 1-.134-.038l-8.804-5.082a.267.267 0 0 1 0-.461l8.751-5.049a.268.268 0 0 1 .263 0l8.807 5.084a.264.264 0 0 1 .131.23.262.262 0 0 1-.131.23l-8.748 5.048a.27.27 0 0 1-.135.038" fill="#fff"/><path opacity=".7" d="M24.281 31.746a.251.251 0 0 1-.134-.036l-8.778-5.066a.26.26 0 0 1-.136-.231V16.247c0-.096.051-.183.136-.231a.263.263 0 0 1 .268 0l8.777 5.064a.28.28 0 0 1 .13.233v10.166a.272.272 0 0 1-.13.231.28.28 0 0 1-.133.036" fill="#fff"/><path opacity=".4" d="M26.766 31.746a.287.287 0 0 1-.138-.036.27.27 0 0 1-.129-.231V21.377c0-.094.051-.182.129-.231l8.777-5.064a.26.26 0 0 1 .264 0 .263.263 0 0 1 .135.23v10.101a.261.261 0 0 1-.135.231l-8.774 5.066a.236.236 0 0 1-.129.036" fill="#fff"/></g></svg></g><g transform="translate(1360 340)"><svg svgBox="0 0 50 50" fill="msportalfx-svg-placeholder" role="presentation" focusable="false"><g><title/><path d="M21.667 0h6.667v5h-6.667zm-10 0h6.667v5h-6.667zM45 45h-3.333v5h5A3.333 3.333 0 0 0 50 46.667v-5h-5V45zM0 31.667h5v6.667H0zM21.667 45h6.667v5h-6.667zM45 31.667h5v6.667h-5zM31.667 45h6.667v5h-6.667zm-20 0h6.667v5h-6.667zM5 45v-3.333H0v5A3.333 3.333 0 0 0 3.333 50h5v-5H5zM0 11.667h5v6.667H0zM5 5h3.333V0h-5A3.334 3.334 0 0 0 0 3.333v5h5V5zM0 21.667h5v6.667H0zm45 0h5v6.667h-5zm0-10.001h5v6.667h-5zM31.666 0h6.667v5h-6.667zM45 5v3.333h5v-5A3.333 3.333 0 0 0 46.667 0h-5v5H45z" fill="#59b4d9"/><path d="M35.328 8.959H9.949c-.863 0-1.558.77-1.558 1.63v17.675c0 .855.695 1.617 1.558 1.617h25.379c.86 0 1.732-.762 1.732-1.617V10.59c.001-.863-.871-1.631-1.732-1.631" fill="#a0a1a2"/><path opacity=".2" d="M35.346 8.961l-.018-.002H9.949c-.863 0-1.558.77-1.558 1.63v17.674c0 .855.695 1.617 1.558 1.617h.604L35.346 8.961z" fill="#fff"/><path d="M34.881 27.678H10.564V11.163l24.317-.036z" fill="#59b4d9"/><path d="M23.022 10.159a.406.406 0 1 1-.812 0 .406.406 0 0 1 .812 0" fill="#b8d432"/><path d="M23.039 18.919a.158.158 0 0 1-.077-.022l-5.049-2.91a.154.154 0 0 1 0-.264l5.018-2.891a.156.156 0 0 1 .151 0l5.05 2.912a.152.152 0 0 1 .075.132.15.15 0 0 1-.075.132l-5.016 2.89a.151.151 0 0 1-.077.021" fill="#fff"/><path d="M31.531 35.535h-7.796c.937 3.303-.322 3.776-5.834 3.776v1.73h18.746v-1.729c-5.513-.001-6.054-.472-5.116-3.777" fill="#7a7a7a"/><path d="M39.877 14.614H14.498c-.863 0-1.558.77-1.558 1.63v17.675c0 .855.695 1.617 1.558 1.617h25.379c.86 0 1.732-.762 1.732-1.617V16.244c0-.862-.872-1.63-1.732-1.63" fill="#a0a1a2"/><path opacity=".2" d="M39.895 14.616l-.018-.002h-25.38c-.863 0-1.558.77-1.558 1.63v17.674c0 .855.695 1.617 1.558 1.617h.604l24.794-20.919z" fill="#fff"/><path d="M39.429 33.333H15.112V16.818l24.317-.036z" fill="#59b4d9"/><path d="M17.901 39.311h18.745v1.73H17.901z" fill="#a0a1a2"/><path d="M27.571 15.814a.406.406 0 1 1-.812 0 .406.406 0 0 1 .812 0" fill="#b8d432"/><path d="M27.587 24.575a.158.158 0 0 1-.077-.022l-5.049-2.91a.154.154 0 0 1 0-.264l5.018-2.891a.156.156 0 0 1 .151 0l5.05 2.912a.152.152 0 0 1 .075.132.15.15 0 0 1-.075.132l-5.016 2.89a.17.17 0 0 1-.077.021" fill="#fff"/><path opacity=".7" d="M26.861 31.648a.152.152 0 0 1-.077-.02l-5.033-2.901a.148.148 0 0 1-.078-.132v-5.822a.15.15 0 0 1 .078-.132.152.152 0 0 1 .154 0l5.033 2.9a.162.162 0 0 1 .075.133v5.822a.152.152 0 0 1-.075.132.17.17 0 0 1-.077.02" fill="#fff"/><path opacity=".4" d="M28.287 31.648a.168.168 0 0 1-.079-.02.156.156 0 0 1-.074-.132V25.71c0-.054.029-.104.074-.132l5.033-2.899a.153.153 0 0 1 .229.132v5.785a.148.148 0 0 1-.077.132l-5.031 2.901a.167.167 0 0 1-.075.019" fill="#fff"/></g></svg></g><g transform="translate(1360 430)"><svg svgBox="0 0 50 50" fill="msportalfx-svg-placeholder" role="presentation" focusable="false"><g><title/><path d="M25.001 50a4.575 4.575 0 0 1-3.261-1.352L1.351 28.26A4.64 4.64 0 0 1 0 24.999c0-1.214.492-2.402 1.351-3.26L21.74 1.351a4.578 4.578 0 0 1 3.261-1.352c1.231 0 2.39.48 3.261 1.352l20.386 20.388A4.565 4.565 0 0 1 50 24.999a4.574 4.574 0 0 1-1.353 3.263L28.262 48.648A4.578 4.578 0 0 1 25.001 50" fill="#7fba00"/><path d="M45.613 24.66L39 18.048v4.668l-7.016-.006A7.276 7.276 0 0 0 27 17.69V11h4.613L25 4.387 18.388 11H23v6.689a7.28 7.28 0 0 0-4.981 5.008L11 22.691v-4.618l-6.613 6.613L11 31.298V26.63l7.022.006A7.278 7.278 0 0 0 23 31.632v4.636c-1 .728-2.528 2.258-2.528 4.04 0 2.481 2.033 4.5 4.514 4.5s4.51-2.019 4.51-4.5c0-1.762-1.496-3.274-2.496-4.013v-4.663a7.28 7.28 0 0 0 4.975-4.983l7.025.006v4.618l6.613-6.613z" fill="#fff"/><path d="M25 19.402c-2.899 0-5.258 2.359-5.258 5.258s2.359 5.258 5.258 5.258 5.258-2.358 5.258-5.258-2.359-5.258-5.258-5.258z" fill="#59b4d9"/><path opacity=".15" d="M28.262 1.351a4.578 4.578 0 0 0-3.261-1.352c-1.231 0-2.389.48-3.26 1.352L1.352 21.739A4.635 4.635 0 0 0 0 24.999c0 1.215.492 2.403 1.352 3.261l11.543 11.544L34.61 7.698l-6.348-6.347z" fill="#fff"/></g></svg></g><g transform="translate(1210 530)"><svg svgBox="0 0 50 50" fill="msportalfx-svg-placeholder" role="presentation" focusable="false"><g><title/><polygon points="27.1,21.8 22.9,21.8 19.7,50 30.3,50" fill="#59b4d9"/><path d="M40.3 22.5C40.3 14 33.5 7.1 25 7.1S9.7 14 9.7 22.5c0 5.6 3 10.5 7.6 13.2.5-.8.9-1.6 1.3-2.3-3.7-2.2-6.2-6.2-6.2-10.9 0-7 5.7-12.7 12.7-12.7 7 0 12.7 5.7 12.7 12.7 0 4.6-2.5 8.7-6.2 10.9.4.7.9 1.5 1.3 2.3 4.4-2.7 7.4-7.6 7.4-13.2" opacity=".5" fill="#3e3e3e"/><path d="M13.7 41.9c.4-.8.9-1.6 1.3-2.4-5.9-3.4-9.8-9.8-9.8-17.1C5.2 11.6 14.1 2.7 25 2.7s19.8 8.9 19.8 19.8c0 7.3-4 13.6-9.8 17.1.4.8.9 1.6 1.3 2.4 6.7-3.9 11.2-11.1 11.2-19.4C47.5 10.1 37.4 0 25 0S2.5 10.1 2.5 22.5c0 8.2 4.6 15.5 11.2 19.4" opacity=".2" fill="#3e3e3e"/><circle cx="25" cy="22.6" r="6.8" fill="#0072c6"/></g></svg></g><g transform="translate(1360 530)"><svg svgBox="0 0 50 50" fill="msportalfx-svg-placeholder" role="presentation" focusable="false"><g><title/><polygon points="27.1,21.8 22.9,21.8 19.7,50 30.3,50" fill="#59b4d9"/><path d="M40.3 22.5C40.3 14 33.5 7.1 25 7.1S9.7 14 9.7 22.5c0 5.6 3 10.5 7.6 13.2.5-.8.9-1.6 1.3-2.3-3.7-2.2-6.2-6.2-6.2-10.9 0-7 5.7-12.7 12.7-12.7 7 0 12.7 5.7 12.7 12.7 0 4.6-2.5 8.7-6.2 10.9.4.7.9 1.5 1.3 2.3 4.4-2.7 7.4-7.6 7.4-13.2" opacity=".5" fill="#3e3e3e"/><path d="M13.7 41.9c.4-.8.9-1.6 1.3-2.4-5.9-3.4-9.8-9.8-9.8-17.1C5.2 11.6 14.1 2.7 25 2.7s19.8 8.9 19.8 19.8c0 7.3-4 13.6-9.8 17.1.4.8.9 1.6 1.3 2.4 6.7-3.9 11.2-11.1 11.2-19.4C47.5 10.1 37.4 0 25 0S2.5 10.1 2.5 22.5c0 8.2 4.6 15.5 11.2 19.4" opacity=".2" fill="#3e3e3e"/><circle cx="25" cy="22.6" r="6.8" fill="#0072c6"/></g></svg></g><g transform="translate(1510 530)"><svg svgBox="0 0 50 50" fill="msportalfx-svg-placeholder" role="presentation" focusable="false"><g><title/><path d="M.5 45.127c0 1.108.898 2.007 2.007 2.007h45.986a2.007 2.007 0 0 0 2.007-2.007V13.798H.5v31.329z" fill="#59b4d9"/><path d="M48.493 4.5H2.507A2.006 2.006 0 0 0 .5 6.507v10.627h50V6.507A2.007 2.007 0 0 0 48.493 4.5" fill="#a0a1a2"/><path opacity=".2" d="M2.514 4.5A2.007 2.007 0 0 0 .507 6.507v38.62c0 1.108.899 2.007 2.007 2.007h2.188L44.12 4.5H2.514z" fill="#fff"/><path d="M13.357 9.279h33.671v3.942H13.357z" fill="#fff"/><path d="M11.81 11.183a4.879 4.879 0 1 1-9.757-.001 4.879 4.879 0 0 1 9.757.001" fill="#59b4d9"/><path d="M6.416 11.732l2.213 2.336H7.428L4.469 11.25l2.948-2.818h1.198l-2.199 2.322h5.393v.978zm11.51 24.844c0 .57-.203 1.037-.609 1.4s-.941.545-1.605.545c-.594 0-1.098-.186-1.512-.557s-.621-.834-.621-1.389c0-.563.207-1.023.621-1.383s.938-.539 1.57-.539c.609 0 1.121.184 1.535.551s.621.825.621 1.372zm8.904 0c0 .57-.203 1.037-.609 1.4s-.941.545-1.605.545c-.594 0-1.098-.186-1.512-.557s-.621-.834-.621-1.389c0-.563.207-1.023.621-1.383s.938-.539 1.57-.539c.609 0 1.121.184 1.535.551s.621.825.621 1.372zm8.903 0c0 .57-.203 1.037-.609 1.4s-.941.545-1.605.545c-.594 0-1.098-.186-1.512-.557s-.621-.834-.621-1.389c0-.563.207-1.023.621-1.383s.938-.539 1.57-.539c.609 0 1.121.184 1.535.551s.621.825.621 1.372z" fill="#fff"/></g></svg></g><g transform="translate(1222.5 190)"><svg svgBox="0 0 50 50" fill="msportalfx-svg-placeholder" role="presentation" focusable="false"><g><title/><path d="M3 0h40.205v50H3z" fill="#7fba00"/><path d="M19.19 4.915h18.921v11.888H19.19z"/><path d="M43.205 3.846h4.501v8.577h-4.501zm0 12.238h4.501v22.825h-4.501z" fill="#fcd116"/><path d="M20.809 31.718h3.243v13.391h-3.243zm-5.244 0h3.243v13.391h-3.243z"/><path opacity=".2" d="M17.636 37.365h-6.144V11.908h8.242v2.098H13.59v21.261h4.046z"/><path opacity=".2" d="M15.538 42.61H7.296V7.713h13.487v2.098H9.394v30.701h6.144zm17.582-2.466h-6.062v-17.31h4.74v-7.799h2.098v9.897h-4.74v13.114h3.964z"/><path d="M23.003 24.11a2.431 2.431 0 0 1-4.862 0 2.43 2.43 0 1 1 4.862 0zm9.843 8.233h4.322v12.365h-4.322z" fill="#e5e5e5"/></g></svg></g><g transform="translate(1210 340)"><svg svgBox="0 0 50 50" fill="msportalfx-svg-placeholder" role="presentation" focusable="false"><g><title/><path d="M32.426 38.534H18.83c1.634 5.768-.561 6.595-10.175 6.595v3.02h32.692v-3.02c-9.614 0-10.557-.824-8.921-6.595" fill="#7a7a7a"/><path d="M46.98 2H2.718C1.214 2 .001 3.345.001 4.847v30.866c0 1.493 1.213 2.823 2.717 2.823H46.98c1.501 0 3.021-1.33 3.021-2.823V4.847C50.001 3.341 48.481 2 46.98 2" fill="#a0a1a2"/><path opacity=".2" d="M47.011 2.003l-.031-.002H2.717C1.213 2.001 0 3.345 0 4.848v30.865c0 1.494 1.213 2.824 2.717 2.824H3.77L47.011 2.003z" fill="#fff"/><path d="M46.098 5.848v28.841H3.79V5.848z" fill="#59b4d9"/><path d="M3.79 34.689h.058V5.849l38.68-.058h.002l-38.74.058z" fill="#59b4d9"/><path d="M8.655 45.128h32.692v3.021H8.655z" fill="#a0a1a2"/><path d="M25.518 4.095a.71.71 0 1 1-1.42 0 .71.71 0 0 1 1.42 0" fill="#b8d432"/><path d="M25.546 19.394a.278.278 0 0 1-.134-.038l-8.804-5.082a.267.267 0 0 1 0-.461l8.751-5.049a.268.268 0 0 1 .263 0l8.807 5.084a.264.264 0 0 1 .131.23.262.262 0 0 1-.131.23l-8.748 5.048a.27.27 0 0 1-.135.038" fill="#fff"/><path opacity=".7" d="M24.281 31.746a.251.251 0 0 1-.134-.036l-8.778-5.066a.26.26 0 0 1-.136-.231V16.247c0-.096.051-.183.136-.231a.263.263 0 0 1 .268 0l8.777 5.064a.28.28 0 0 1 .13.233v10.166a.272.272 0 0 1-.13.231.28.28 0 0 1-.133.036" fill="#fff"/><path opacity=".4" d="M26.766 31.746a.287.287 0 0 1-.138-.036.27.27 0 0 1-.129-.231V21.377c0-.094.051-.182.129-.231l8.777-5.064a.26.26 0 0 1 .264 0 .263.263 0 0 1 .135.23v10.101a.261.261 0 0 1-.135.231l-8.774 5.066a.236.236 0 0 1-.129.036" fill="#fff"/></g></svg></g><g transform="translate(1372.5 190)"><svg svgBox="0 0 50 50" fill="msportalfx-svg-placeholder" role="presentation" focusable="false"><g><title/><path d="M3 0h40.205v50H3z" fill="#7fba00"/><path d="M19.19 4.915h18.921v11.888H19.19z"/><path d="M43.205 3.846h4.501v8.577h-4.501zm0 12.238h4.501v22.825h-4.501z" fill="#fcd116"/><path d="M20.809 31.718h3.243v13.391h-3.243zm-5.244 0h3.243v13.391h-3.243z"/><path opacity=".2" d="M17.636 37.365h-6.144V11.908h8.242v2.098H13.59v21.261h4.046z"/><path opacity=".2" d="M15.538 42.61H7.296V7.713h13.487v2.098H9.394v30.701h6.144zm17.582-2.466h-6.062v-17.31h4.74v-7.799h2.098v9.897h-4.74v13.114h3.964z"/><path d="M23.003 24.11a2.431 2.431 0 0 1-4.862 0 2.43 2.43 0 1 1 4.862 0zm9.843 8.233h4.322v12.365h-4.322z" fill="#e5e5e5"/></g></svg></g><g transform="translate(1510 340)"><svg svgBox="0 0 50 50" fill="msportalfx-svg-placeholder" role="presentation" focusable="false"><g><title/><path d="M32.426 38.534H18.83c1.634 5.768-.561 6.595-10.175 6.595v3.02h32.692v-3.02c-9.614 0-10.557-.824-8.921-6.595" fill="#7a7a7a"/><path d="M46.98 2H2.718C1.214 2 .001 3.345.001 4.847v30.866c0 1.493 1.213 2.823 2.717 2.823H46.98c1.501 0 3.021-1.33 3.021-2.823V4.847C50.001 3.341 48.481 2 46.98 2" fill="#a0a1a2"/><path opacity=".2" d="M47.011 2.003l-.031-.002H2.717C1.213 2.001 0 3.345 0 4.848v30.865c0 1.494 1.213 2.824 2.717 2.824H3.77L47.011 2.003z" fill="#fff"/><path d="M46.098 5.848v28.841H3.79V5.848z" fill="#59b4d9"/><path d="M3.79 34.689h.058V5.849l38.68-.058h.002l-38.74.058z" fill="#59b4d9"/><path d="M8.655 45.128h32.692v3.021H8.655z" fill="#a0a1a2"/><path d="M25.518 4.095a.71.71 0 1 1-1.42 0 .71.71 0 0 1 1.42 0" fill="#b8d432"/><path d="M25.546 19.394a.278.278 0 0 1-.134-.038l-8.804-5.082a.267.267 0 0 1 0-.461l8.751-5.049a.268.268 0 0 1 .263 0l8.807 5.084a.264.264 0 0 1 .131.23.262.262 0 0 1-.131.23l-8.748 5.048a.27.27 0 0 1-.135.038" fill="#fff"/><path opacity=".7" d="M24.281 31.746a.251.251 0 0 1-.134-.036l-8.778-5.066a.26.26 0 0 1-.136-.231V16.247c0-.096.051-.183.136-.231a.263.263 0 0 1 .268 0l8.777 5.064a.28.28 0 0 1 .13.233v10.166a.272.272 0 0 1-.13.231.28.28 0 0 1-.133.036" fill="#fff"/><path opacity=".4" d="M26.766 31.746a.287.287 0 0 1-.138-.036.27.27 0 0 1-.129-.231V21.377c0-.094.051-.182.129-.231l8.777-5.064a.26.26 0 0 1 .264 0 .263.263 0 0 1 .135.23v10.101a.261.261 0 0 1-.135.231l-8.774 5.066a.236.236 0 0 1-.129.036" fill="#fff"/></g></svg></g><g transform="translate(1522.5 190)"><svg svgBox="0 0 50 50" fill="msportalfx-svg-placeholder" role="presentation" focusable="false"><g><title/><path d="M38.2 6c-11-1.2-12.9-6-12.9-6S22.8 6.2 7 6.2v25.6c0 3.1 1.7 6 4.1 8.5 5.4 5.7 14.2 9.6 14.2 9.6s18.3-8 18.3-18.1V6.2c-2 0-3.8-.1-5.4-.2z" fill="#3999C6"/><path opacity=".4" d="M29.9 16.5L38.2 6c-11-1.2-12.9-6-12.9-6S22.8 6.2 7 6.2v25.6c0 3.1 1.7 6 4.1 8.5l6.2-7.8 12.6-16z" fill="#59b4d9"/><g fill="#fff"><path opacity=".3" d="M10.8 24.4v6.1c0 2.5 1.4 4.8 3.3 6.8 4.3 4.6 11.3 7.6 11.3 7.6V24.4H10.8z"/><path opacity=".7" d="M25.3 44.9s14.6-6.4 14.6-14.4v-6.1H25.3v20.5zm0-39.8s-2 5-14.6 5v14.3h14.6V5.1z"/><path opacity=".3" d="M35.5 9.9c-8.7-1-10.2-4.7-10.2-4.7v19.2h14.6V10.1c-1.6 0-3.1-.1-4.4-.2z"/></g></g></svg></g><g transform="translate(595.1991380856481 46.578125)"><text font-family="Arial" font-size="12px" font-style="normal" font-weight="normal" text-anchor="start" fill="rgb(0,0,0)" fill-opacity="1" dy="1em" transform="translate(0 0)">ocp42-4j3ze-vnet</text></g><g transform="translate(572.6952177932617 136.578125)"><text font-family="Arial" font-size="12px" font-style="normal" font-weight="normal" text-anchor="start" fill="rgb(0,0,0)" fill-opacity="1" dy="1em" transform="translate(0 0)">ocp42-4j3ze-maste...</text></g><g transform="translate(136.8571641178392 236.578125)"><text font-family="Arial" font-size="12px" font-style="normal" font-weight="normal" text-anchor="start" fill="rgb(0,0,0)" fill-opacity="1" dy="1em" transform="translate(0 0)">ocp42-4j3ze-boots...</text></g><g transform="translate(-19.39283588216078 386.578125)"><text font-family="Arial" font-size="12px" font-style="normal" font-weight="normal" text-anchor="start" fill="rgb(0,0,0)" fill-opacity="1" dy="1em" transform="translate(0 0)">ocp42-4j3ze-boots...</text></g><g transform="translate(433.9457123783221 386.578125)"><text font-family="Arial" font-size="12px" font-style="normal" font-weight="normal" text-anchor="start" fill="rgb(0,0,0)" fill-opacity="1" dy="1em" transform="translate(0 0)">ocp42-4j3ze-inter...</text></g><g transform="translate(433.9457123783221 476.578125)"><text font-family="Arial" font-size="12px" font-style="normal" font-weight="normal" text-anchor="start" fill="rgb(0,0,0)" fill-opacity="1" dy="1em" transform="translate(0 0)">ocp42-4j3ze-inter...</text></g><g transform="translate(174.9729361941313 576.578125)"><text font-family="Arial" font-size="12px" font-style="normal" font-weight="normal" text-anchor="start" fill="rgb(0,0,0)" fill-opacity="1" dy="1em" transform="translate(0 0)">bootstrap-probe</text></g><g transform="translate(304.61629205975584 576.578125)"><text font-family="Arial" font-size="12px" font-style="normal" font-weight="normal" text-anchor="start" fill="rgb(0,0,0)" fill-opacity="1" dy="1em" transform="translate(0 0)">api-internal-probe</text></g><g transform="translate(468.6358498559715 576.578125)"><text font-family="Arial" font-size="12px" font-style="normal" font-weight="normal" text-anchor="start" fill="rgb(0,0,0)" fill-opacity="1" dy="1em" transform="translate(0 0)">internal-lb-ip</text></g><g transform="translate(582.6091206252228 386.578125)"><text font-family="Arial" font-size="12px" font-style="normal" font-weight="normal" text-anchor="start" fill="rgb(0,0,0)" fill-opacity="1" dy="1em" transform="translate(0 0)">ocp42-4j3ze-publi...</text></g><g transform="translate(615.9424539585561 476.578125)"><text font-family="Arial" font-size="12px" font-style="normal" font-weight="normal" text-anchor="start" fill="rgb(0,0,0)" fill-opacity="1" dy="1em" transform="translate(0 0)">ocp42-4j3ze-publi...</text></g><g transform="translate(604.6162920597558 576.578125)"><text font-family="Arial" font-size="12px" font-style="normal" font-weight="normal" text-anchor="start" fill="rgb(0,0,0)" fill-opacity="1" dy="1em" transform="translate(0 0)">api-internal-probe</text></g><g transform="translate(774.9729361941313 576.578125)"><text font-family="Arial" font-size="12px" font-style="normal" font-weight="normal" text-anchor="start" fill="rgb(0,0,0)" fill-opacity="1" dy="1em" transform="translate(0 0)">bootstrap-probe</text></g><g transform="translate(922.6397628707385 576.578125)"><text font-family="Arial" font-size="12px" font-style="normal" font-weight="normal" text-anchor="start" fill="rgb(0,0,0)" fill-opacity="1" dy="1em" transform="translate(0 0)">public-lb-ip</text></g><g transform="translate(130.6071641178392 386.578125)"><text font-family="Arial" font-size="12px" font-style="normal" font-weight="normal" text-anchor="start" fill="rgb(0,0,0)" fill-opacity="1" dy="1em" transform="translate(0 0)">ocp42-4j3ze-boots...</text></g><g transform="translate(422.6952177932617 236.578125)"><text font-family="Arial" font-size="12px" font-style="normal" font-weight="normal" text-anchor="start" fill="rgb(0,0,0)" fill-opacity="1" dy="1em" transform="translate(0 0)">ocp42-4j3ze-maste...</text></g><g transform="translate(278.9452177932617 386.578125)"><text font-family="Arial" font-size="12px" font-style="normal" font-weight="normal" text-anchor="start" fill="rgb(0,0,0)" fill-opacity="1" dy="1em" transform="translate(0 0)">ocp42-4j3ze-maste...</text></g><g transform="translate(572.6952177932617 236.578125)"><text font-family="Arial" font-size="12px" font-style="normal" font-weight="normal" text-anchor="start" fill="rgb(0,0,0)" fill-opacity="1" dy="1em" transform="translate(0 0)">ocp42-4j3ze-maste...</text></g><g transform="translate(728.9452177932617 386.578125)"><text font-family="Arial" font-size="12px" font-style="normal" font-weight="normal" text-anchor="start" fill="rgb(0,0,0)" fill-opacity="1" dy="1em" transform="translate(0 0)">ocp42-4j3ze-maste...</text></g><g transform="translate(722.6952177932617 236.578125)"><text font-family="Arial" font-size="12px" font-style="normal" font-weight="normal" text-anchor="start" fill="rgb(0,0,0)" fill-opacity="1" dy="1em" transform="translate(0 0)">ocp42-4j3ze-maste...</text></g><g transform="translate(878.9452177932617 386.578125)"><text font-family="Arial" font-size="12px" font-style="normal" font-weight="normal" text-anchor="start" fill="rgb(0,0,0)" fill-opacity="1" dy="1em" transform="translate(0 0)">ocp42-4j3ze-maste...</text></g><g transform="translate(876.0279038092135 236.578125)"><text font-family="Arial" font-size="12px" font-style="normal" font-weight="normal" text-anchor="start" fill="rgb(0,0,0)" fill-opacity="1" dy="1em" transform="translate(0 0)">ocp42-4j3ze-contr...</text></g><g transform="translate(1198.0293657315365 136.578125)"><text font-family="Arial" font-size="12px" font-style="normal" font-weight="normal" text-anchor="start" fill="rgb(0,0,0)" fill-opacity="1" dy="1em" transform="translate(0 0)">ocp42-4j3ze-worke...</text></g><g transform="translate(1041.7793657315365 236.578125)"><text font-family="Arial" font-size="12px" font-style="normal" font-weight="normal" text-anchor="start" fill="rgb(0,0,0)" fill-opacity="1" dy="1em" transform="translate(0 0)">ocp42-4j3ze-worke...</text></g><g transform="translate(1029.2793657315365 386.578125)"><text font-family="Arial" font-size="12px" font-style="normal" font-weight="normal" text-anchor="start" fill="rgb(0,0,0)" fill-opacity="1" dy="1em" transform="translate(0 0)">ocp42-4j3ze-worke...</text></g><g transform="translate(1330.27594730183 386.578125)"><text font-family="Arial" font-size="12px" font-style="normal" font-weight="normal" text-anchor="start" fill="rgb(0,0,0)" fill-opacity="1" dy="1em" transform="translate(0 0)">ocp42-4j3ze-apps-...</text></g><g transform="translate(1330.6071641178391 476.578125)"><text font-family="Arial" font-size="12px" font-style="normal" font-weight="normal" text-anchor="start" fill="rgb(0,0,0)" fill-opacity="1" dy="1em" transform="translate(0 0)">ocp42-4j3ze-apps-lb</text></g><g transform="translate(1207.6350425286494 576.578125)"><text font-family="Arial" font-size="12px" font-style="normal" font-weight="normal" text-anchor="start" fill="rgb(0,0,0)" fill-opacity="1" dy="1em" transform="translate(0 0)">probe-http</text></g><g transform="translate(1354.633573328707 576.578125)"><text font-family="Arial" font-size="12px" font-style="normal" font-weight="normal" text-anchor="start" fill="rgb(0,0,0)" fill-opacity="1" dy="1em" transform="translate(0 0)">probe-https</text></g><g transform="translate(1511.641886665682 576.578125)"><text font-family="Arial" font-size="12px" font-style="normal" font-weight="normal" text-anchor="start" fill="rgb(0,0,0)" fill-opacity="1" dy="1em" transform="translate(0 0)">app-lb-ip</text></g><g transform="translate(1191.7793657315365 236.578125)"><text font-family="Arial" font-size="12px" font-style="normal" font-weight="normal" text-anchor="start" fill="rgb(0,0,0)" fill-opacity="1" dy="1em" transform="translate(0 0)">ocp42-4j3ze-worke...</text></g><g transform="translate(1179.2793657315365 386.578125)"><text font-family="Arial" font-size="12px" font-style="normal" font-weight="normal" text-anchor="start" fill="rgb(0,0,0)" fill-opacity="1" dy="1em" transform="translate(0 0)">ocp42-4j3ze-worke...</text></g><g transform="translate(1341.7793657315365 236.578125)"><text font-family="Arial" font-size="12px" font-style="normal" font-weight="normal" text-anchor="start" fill="rgb(0,0,0)" fill-opacity="1" dy="1em" transform="translate(0 0)">ocp42-4j3ze-worke...</text></g><g transform="translate(1479.2793657315365 386.578125)"><text font-family="Arial" font-size="12px" font-style="normal" font-weight="normal" text-anchor="start" fill="rgb(0,0,0)" fill-opacity="1" dy="1em" transform="translate(0 0)">ocp42-4j3ze-worke...</text></g><g transform="translate(1492.4388682412896 236.578125)"><text font-family="Arial" font-size="12px" font-style="normal" font-weight="normal" text-anchor="start" fill="rgb(0,0,0)" fill-opacity="1" dy="1em" transform="translate(0 0)">ocp42-4j3ze-node-...</text></g></g></svg>